# xmcd CD database file
#
# Track frame offsets:
#	150
#	12162
#	24220
#	36237
#	47355
#	57195
#	70492
#	82680
#	93235
#	102280
#	116475
#	128940
#	141322
#	153542
#	164920
#	177845
#
# Disc length: 2524 seconds
#
# Revision: 9
# Processed by: cddbd v1.5.2PL0 Copyright (c) Steve Scherf et al.
# Submitted via: CDex 1.51
#
DISCID=cd09da10
DTITLE=Various Artist - Greatest Hits of the 60s Volume 6
DYEAR=1996
DGENRE=Rock and Roll
TTITLE0=The Drifters - Save The Last Dance For Me
TTITLE1=Chubby Checker - The Twist
TTITLE2=The Shirelles - Will You Love Me Tomorrow
TTITLE3=Johnny Tillotson - Poetry in Motion
TTITLE4=The Ventures - Walk-Don't Run
TTITLE5=The Platters - Harbor Lights
TTITLE6=The Drifters - This Magic Moment
TTITLE7=Bobby Rydell - Wild One
TTITLE8=Duane Eddy - Because They're Young
TTITLE9=Larry Verne - Mr. Custer
TTITLE10=Jack Scott - Burning Bridges
TTITLE11=Hollywood Argyles - Alley Oop
TTITLE12=Bobby Rydell - Volare
TTITLE13=Hank Ballard - Let's Go, Let's Go, Let's Go
TTITLE14=Ray Peterson - Tell Laura I Love Her
TTITLE15=Johnny Maestro - Step By Step
EXTD=YEAR: 1996
EXTT0=
EXTT1=
EXTT2=
EXTT3=
EXTT4=
EXTT5=
EXTT6=
EXTT7=
EXTT8=
EXTT9=
EXTT10=
EXTT11=
EXTT12=
EXTT13=
EXTT14=
EXTT15=
PLAYORDER=
